<svg width="48" height="48" viewBox="0 0 48 48" fill="none" xmlns="http://www.w3.org/2000/svg">
<path d="M17.8999 10C15.9464 10.3811 14.1511 11.3365 12.7438 12.7439C11.3364 14.1512 10.381 15.9465 9.99989 17.9M17.8999 2C13.8413 2.45087 10.0567 4.26835 7.16741 7.15402C4.27811 10.0397 2.45587 13.822 1.99989 17.88M3.99989 33.84V39.84C3.99763 40.397 4.11172 40.9483 4.33487 41.4587C4.55801 41.9691 4.88529 42.4272 5.29573 42.8037C5.70618 43.1803 6.19074 43.467 6.71839 43.6454C7.24604 43.8239 7.80514 43.8901 8.35989 43.84C14.5142 43.1713 20.4259 41.0683 25.6199 37.7C30.4522 34.6293 34.5492 30.5323 37.6199 25.7C40.9999 20.4824 43.1034 14.542 43.7599 8.36C43.8099 7.80693 43.7441 7.24952 43.5669 6.72325C43.3896 6.19698 43.1047 5.71338 42.7304 5.30324C42.356 4.89311 41.9003 4.56542 41.3923 4.34104C40.8843 4.11667 40.3352 4.00052 39.7799 4H33.7799C32.8093 3.99045 31.8683 4.33416 31.1324 4.96707C30.3964 5.59997 29.9157 6.47889 29.7799 7.44C29.5266 9.36013 29.057 11.2455 28.3799 13.06C28.1108 13.7758 28.0526 14.5538 28.2121 15.3018C28.3716 16.0497 28.7422 16.7362 29.2799 17.28L31.8199 19.82C28.9728 24.8271 24.827 28.9729 19.8199 31.82L17.2799 29.28C16.7361 28.7423 16.0496 28.3717 15.3017 28.2122C14.5537 28.0527 13.7757 28.1109 13.0599 28.38C11.2453 29.0571 9.36002 29.5268 7.43989 29.78C6.46836 29.9171 5.58109 30.4064 4.94682 31.155C4.31256 31.9036 3.97555 32.8592 3.99989 33.84Z" stroke="white" stroke-width="4" stroke-linecap="round" stroke-linejoin="round"/>
</svg>
